# xmcd CD database file
#
# Track frame offsets:
#	150
#	11837
#	22058
#	34378
#	42598
#	54810
#	63647
#	75447
#	84374
#	94976
#	106311
#	116273
#	127557
#	137855
#	147523
#	156392
#	166538
#	175800
#	184616
#
# Disc length: 2607 seconds
#
# Revision: 0
# Processed by: cddbd v1.4b42PL1 Copyright (c) Steve Scherf et al.
# Submitted via: CdAid 2001.05.15.01
#
DISCID=f50a2d13
DTITLE=The Beatles - 3
DYEAR=1900
DGENRE=
TTITLE0=Mr. Moonlight
TTITLE1=No Reply
TTITLE2=Eight Days A Week
TTITLE3=I'll Follow The Sun
TTITLE4=I Should Have Known You Better
TTITLE5=I'm Happy Just To Dance With You
TTITLE6=Things We Said Today
TTITLE7=Matchbox
TTITLE8=Bad Boy
TTITLE9=And I Love Her
TTITLE10=Words Of Love
TTITLE11=I Need You
TTITLE12=When I Get Home
TTITLE13=I Call Your Name
TTITLE14=Do You Want To Know A Secret
TTITLE15=Wait
TTITLE16=All I've Got To Do
TTITLE17=It's Only Love
TTITLE18=Devil In Her Heart
EXTD=
EXTT0=
EXTT1=
EXTT2=
EXTT3=
EXTT4=
EXTT5=
EXTT6=
EXTT7=
EXTT8=
EXTT9=
EXTT10=
EXTT11=
EXTT12=
EXTT13=
EXTT14=
EXTT15=
EXTT16=
EXTT17=
EXTT18=
PLAYORDER=
